<svg width="565" height="64" viewBox="0 0 565 64" fill="none" xmlns="http://www.w3.org/2000/svg">
<path d="M100.285 19.7373L103.118 24.1923L84.3075 35.5498L103.118 46.9073L100.092 51.3348L79 38.1898V32.9098L100.285 19.7373Z" fill="#6F99D8"/>
<path d="M415.495 48.1998C415.495 46.7331 415.999 45.4865 417.008 44.4598C418.034 43.4148 419.299 42.8923 420.803 42.8923C422.306 42.8923 423.571 43.4148 424.598 44.4598C425.624 45.4865 426.138 46.7331 426.138 48.1998C426.138 49.6665 425.624 50.9223 424.598 51.9673C423.571 53.0123 422.306 53.5348 420.803 53.5348C419.299 53.5348 418.034 53.0123 417.008 51.9673C415.999 50.9223 415.495 49.6665 415.495 48.1998Z" fill="#6F99D8"/>
<path d="M459.254 11.4048L465.414 12.0923V52.7923H459.996L459.556 49.2173C458.566 50.5923 457.384 51.6556 456.009 52.4073C454.634 53.159 453.094 53.5348 451.389 53.5348C448.895 53.5348 446.842 52.9023 445.229 51.6373C443.634 50.354 442.442 48.5665 441.654 46.2748C440.865 43.9831 440.471 41.3156 440.471 38.2723C440.471 35.3206 440.93 32.699 441.846 30.4073C442.763 28.0973 444.074 26.2823 445.779 24.9623C447.484 23.6423 449.537 22.9823 451.939 22.9823C454.927 22.9823 457.365 24.0365 459.254 26.1448V11.4048ZM453.561 27.7123C451.489 27.7123 449.876 28.574 448.721 30.2973C447.566 32.0023 446.989 34.6606 446.989 38.2723C446.989 41.9756 447.511 44.6615 448.556 46.3298C449.619 47.9798 451.105 48.8048 453.011 48.8048C454.405 48.8048 455.615 48.4015 456.641 47.5948C457.668 46.7881 458.539 45.8165 459.254 44.6798V30.9298C458.539 29.9031 457.704 29.1148 456.751 28.5648C455.798 27.9965 454.734 27.7123 453.561 27.7123Z" fill="#6F99D8"/>
<path d="M480.297 40.2523C480.481 43.2406 481.315 45.404 482.8 46.7423C484.303 48.0806 486.109 48.7498 488.217 48.7498C489.629 48.7498 490.94 48.5298 492.15 48.0898C493.378 47.6498 494.606 47.0265 495.835 46.2198L498.502 49.9048C497.146 51.0048 495.56 51.8848 493.745 52.5448C491.93 53.2048 489.986 53.5348 487.915 53.5348C484.89 53.5348 482.332 52.8931 480.242 51.6098C478.171 50.3265 476.594 48.539 475.512 46.2473C474.449 43.9556 473.917 41.3065 473.917 38.2998C473.917 35.3848 474.449 32.7815 475.512 30.4898C476.576 28.1798 478.097 26.3556 480.077 25.0173C482.057 23.6606 484.422 22.9823 487.172 22.9823C491.022 22.9823 494.066 24.2748 496.302 26.8598C498.557 29.4448 499.685 32.9923 499.685 37.5023C499.685 37.9973 499.666 38.4923 499.63 38.9873C499.611 39.464 499.584 39.8856 499.547 40.2523H480.297ZM487.227 27.5473C485.302 27.5473 483.707 28.2348 482.442 29.6098C481.177 30.9848 480.453 33.1298 480.27 36.0448H493.717C493.662 33.3131 493.076 31.214 491.957 29.7473C490.857 28.2806 489.281 27.5473 487.227 27.5473Z" fill="#6F99D8"/>
<path d="M533.598 23.7523L523.368 52.7923H516.163L505.933 23.7523H512.533L519.903 47.6773L527.301 23.7523H533.598Z" fill="#6F99D8"/>
<path d="M543.559 19.7373L564.817 32.8823V38.1898L543.724 51.3348L540.699 46.9898L559.537 35.5498L540.699 24.2748L543.559 19.7373Z" fill="#6F99D8"/>
<path d="M131.544 46.0615C131.544 47.2274 131.723 48.0829 132.08 48.6282C132.437 49.1547 133.011 49.5496 133.8 49.8128L132.39 54.1C130.923 53.9308 129.664 53.5265 128.611 52.8872C127.558 52.2479 126.759 51.2795 126.213 49.982C125.123 51.3547 123.741 52.3889 122.067 53.0846C120.394 53.7803 118.607 54.1282 116.708 54.1282C113.7 54.1282 111.311 53.282 109.544 51.5897C107.795 49.8786 106.921 47.641 106.921 44.8769C106.921 41.7368 108.143 39.3205 110.588 37.6282C113.032 35.9359 116.529 35.0897 121.08 35.0897H125.339V33.1436C125.339 31.2256 124.756 29.8436 123.59 28.9974C122.443 28.1513 120.817 27.7282 118.711 27.7282C117.733 27.7282 116.548 27.8598 115.157 28.1231C113.765 28.3675 112.308 28.753 110.785 29.2795L109.234 24.8231C111.095 24.1273 112.919 23.6197 114.706 23.3C116.492 22.9615 118.147 22.7923 119.67 22.7923C123.656 22.7923 126.627 23.6761 128.582 25.4436C130.557 27.2111 131.544 29.6556 131.544 32.7769V46.0615ZM118.626 49.4744C119.905 49.4744 121.155 49.1359 122.377 48.459C123.6 47.7821 124.587 46.8325 125.339 45.6103V39.0385H121.841C118.87 39.0385 116.746 39.5368 115.467 40.5333C114.188 41.5111 113.549 42.865 113.549 44.5949C113.549 46.1744 113.972 47.3872 114.818 48.2333C115.683 49.0607 116.953 49.4744 118.626 49.4744Z" fill="#6F99D8"/>
<path d="M167.497 51.7872C166.407 52.4829 165.1 53.047 163.577 53.4795C162.054 53.912 160.465 54.1282 158.81 54.1282C155.35 54.1282 152.718 53.235 150.913 51.4487C149.126 49.6436 148.233 47.2744 148.233 44.341V28.1795H141.605V23.5821H148.233V16.9256L154.551 16.1641V23.5821H164.592L163.887 28.1795H154.551V44.2846C154.551 45.8829 154.946 47.0769 155.736 47.8667C156.544 48.6376 157.861 49.0231 159.684 49.0231C160.775 49.0231 161.781 48.8915 162.702 48.6282C163.624 48.365 164.46 48.0265 165.213 47.6128L167.497 51.7872Z" fill="#6F99D8"/>
<path d="M192.733 23.5821V48.741H200.827V53.3667H177.502V48.741H186.415V28.2077H177.784V23.5821H192.733ZM188.333 9C189.574 9 190.57 9.37607 191.322 10.1282C192.093 10.8803 192.479 11.8205 192.479 12.9487C192.479 14.0769 192.093 15.0265 191.322 15.7974C190.57 16.5684 189.574 16.9538 188.333 16.9538C187.129 16.9538 186.142 16.5684 185.371 15.7974C184.6 15.0265 184.215 14.0769 184.215 12.9487C184.215 11.8205 184.6 10.8803 185.371 10.1282C186.142 9.37607 187.129 9 188.333 9Z" fill="#6F99D8"/>
<path d="M228.404 10.9179C230.228 10.9179 231.854 11.0778 233.283 11.3974C234.731 11.6983 236.066 12.112 237.288 12.6385L235.427 17.0103C234.43 16.5966 233.387 16.2957 232.296 16.1077C231.224 15.9197 230.134 15.8256 229.024 15.8256C227.069 15.8256 225.621 16.2017 224.681 16.9538C223.741 17.6872 223.27 18.853 223.27 20.4513V25.7256H233.227L232.55 30.3795H223.27V53.3667H216.981V30.3795H210.211V25.7256H216.981V20.3949C216.981 18.5145 217.451 16.8692 218.391 15.459C219.35 14.0299 220.685 12.9205 222.396 12.1308C224.107 11.3222 226.11 10.9179 228.404 10.9179Z" fill="#6F99D8"/>
<path d="M266.896 46.0615C266.896 47.2274 267.074 48.0829 267.431 48.6282C267.789 49.1547 268.362 49.5496 269.152 49.8128L267.742 54.1C266.275 53.9308 265.015 53.5265 263.962 52.8872C262.909 52.2479 262.11 51.2795 261.565 49.982C260.474 51.3547 259.092 52.3889 257.419 53.0846C255.745 53.7803 253.959 54.1282 252.06 54.1282C249.051 54.1282 246.663 53.282 244.896 51.5897C243.147 49.8786 242.272 47.641 242.272 44.8769C242.272 41.7368 243.495 39.3205 245.939 37.6282C248.384 35.9359 251.881 35.0897 256.431 35.0897H260.69V33.1436C260.69 31.2256 260.107 29.8436 258.942 28.9974C257.795 28.1513 256.168 27.7282 254.062 27.7282C253.084 27.7282 251.9 27.8598 250.508 28.1231C249.117 28.3675 247.66 28.753 246.137 29.2795L244.585 24.8231C246.447 24.1273 248.271 23.6197 250.057 23.3C251.843 22.9615 253.498 22.7923 255.021 22.7923C259.008 22.7923 261.978 23.6761 263.934 25.4436C265.908 27.2111 266.896 29.6556 266.896 32.7769V46.0615ZM253.978 49.4744C255.256 49.4744 256.507 49.1359 257.729 48.459C258.951 47.7821 259.938 46.8325 260.69 45.6103V39.0385H257.193C254.222 39.0385 252.097 39.5368 250.819 40.5333C249.54 41.5111 248.901 42.865 248.901 44.5949C248.901 46.1744 249.324 47.3872 250.17 48.2333C251.035 49.0607 252.304 49.4744 253.978 49.4744Z" fill="#6F99D8"/>
<path d="M294.246 23.5821V48.741H302.341V53.3667H279.015V48.741H287.928V28.2077H279.298V23.5821H294.246ZM289.846 9C291.087 9 292.084 9.37607 292.836 10.1282C293.607 10.8803 293.992 11.8205 293.992 12.9487C293.992 14.0769 293.607 15.0265 292.836 15.7974C292.084 16.5684 291.087 16.9538 289.846 16.9538C288.643 16.9538 287.656 16.5684 286.885 15.7974C286.114 15.0265 285.728 14.0769 285.728 12.9487C285.728 11.8205 286.114 10.8803 286.885 10.1282C287.656 9.37607 288.643 9 289.846 9Z" fill="#6F99D8"/>
<path d="M332.343 22.7923C333.471 22.7923 334.487 23.0368 335.389 23.5256C336.292 24.0145 336.997 24.8701 337.505 26.0923C338.031 27.3145 338.294 29.0256 338.294 31.2256V53.3667H332.682V32.1C332.682 30.5393 332.569 29.4205 332.343 28.7436C332.136 28.0667 331.582 27.7282 330.679 27.7282C329.964 27.7282 329.241 27.9538 328.507 28.4051C327.774 28.8376 327.031 29.5897 326.279 30.6615V53.3667H321.174V32.1C321.174 30.5393 321.061 29.4205 320.835 28.7436C320.629 28.0667 320.074 27.7282 319.171 27.7282C318.438 27.7282 317.705 27.9538 316.971 28.4051C316.257 28.8376 315.523 29.5897 314.771 30.6615V53.3667H309.13V23.5821H313.897L314.32 26.7974C315.166 25.6128 316.088 24.6538 317.084 23.9205C318.081 23.1684 319.284 22.7923 320.694 22.7923C321.823 22.7923 322.847 23.0744 323.769 23.6385C324.69 24.2026 325.367 25.1897 325.8 26.6C326.627 25.4718 327.567 24.5598 328.62 23.8641C329.673 23.1496 330.914 22.7923 332.343 22.7923Z" fill="#6F99D8"/>
<path d="M368.409 46.0615C368.409 47.2274 368.588 48.0829 368.945 48.6282C369.302 49.1547 369.876 49.5496 370.666 49.8128L369.255 54.1C367.789 53.9308 366.529 53.5265 365.476 52.8872C364.423 52.2479 363.624 51.2795 363.078 49.982C361.988 51.3547 360.606 52.3889 358.932 53.0846C357.259 53.7803 355.472 54.1282 353.573 54.1282C350.565 54.1282 348.177 53.282 346.409 51.5897C344.66 49.8786 343.786 47.641 343.786 44.8769C343.786 41.7368 345.008 39.3205 347.453 37.6282C349.897 35.9359 353.395 35.0897 357.945 35.0897H362.204V33.1436C362.204 31.2256 361.621 29.8436 360.455 28.9974C359.308 28.1513 357.682 27.7282 355.576 27.7282C354.598 27.7282 353.413 27.8598 352.022 28.1231C350.631 28.3675 349.173 28.753 347.65 29.2795L346.099 24.8231C347.96 24.1273 349.784 23.6197 351.571 23.3C353.357 22.9615 355.012 22.7923 356.535 22.7923C360.521 22.7923 363.492 23.6761 365.448 25.4436C367.422 27.2111 368.409 29.6556 368.409 32.7769V46.0615ZM355.491 49.4744C356.77 49.4744 358.02 49.1359 359.243 48.459C360.465 47.7821 361.452 46.8325 362.204 45.6103V39.0385H358.707C355.736 39.0385 353.611 39.5368 352.332 40.5333C351.054 41.5111 350.414 42.865 350.414 44.5949C350.414 46.1744 350.837 47.3872 351.684 48.2333C352.548 49.0607 353.818 49.4744 355.491 49.4744Z" fill="#6F99D8"/>
<path d="M379.486 53.3667V23.5821H384.929L385.409 27.4462C386.65 25.9231 388.116 24.7667 389.809 23.9769C391.501 23.1872 393.24 22.7923 395.027 22.7923C397.809 22.7923 399.887 23.5726 401.26 25.1333C402.651 26.6752 403.347 28.847 403.347 31.6487V53.3667H397.029V34.7795C397.029 33.0496 396.926 31.6581 396.719 30.6051C396.512 29.5521 396.098 28.7906 395.478 28.3205C394.876 27.8504 393.974 27.6154 392.77 27.6154C391.811 27.6154 390.899 27.8222 390.034 28.2359C389.169 28.6496 388.38 29.1949 387.665 29.8718C386.951 30.5299 386.33 31.235 385.803 31.9872V53.3667H379.486Z" fill="#6F99D8"/>
<path fill-rule="evenodd" clip-rule="evenodd" d="M29.3734 24.9624L29.4299 24.9718L29.4587 24.821L29.3734 24.9624ZM18.8424 19.6943L14.4482 18.3603L13.846 16.1129L21.4033 8.07879L23.117 9.65194L16.4061 16.6313L27.9736 20.0052L31.7964 -0.00013103L34.1167 0.419383L33.6412 2.90531L47.5178 7.07805L48.1231 9.3371L40.6447 17.3376L38.8616 15.8332L45.5747 8.8156L33.1983 5.23196L30.1617 21.1385L18.8424 19.6943Z" fill="#6F99D8"/>
<path d="M41.164 42.0965C39.53 42.0965 37.9926 41.2257 37.1611 39.8323L30.9441 29.5176L24.7368 39.8323C23.8956 41.2354 22.3582 42.1062 20.7242 42.1062C20.2891 42.1062 19.854 42.0481 19.4383 41.9224L6.19209 38.1293V55.3528C6.19209 56.7752 7.15897 58.0137 8.53193 58.3524L29.4358 63.5872C30.422 63.8291 31.4565 63.8291 32.4331 63.5872L53.3563 58.3524C54.7292 58.0041 55.6961 56.7655 55.6961 55.3528V38.1293L42.4499 41.9127C42.0342 42.0385 41.5991 42.0965 41.164 42.0965ZM61.7197 31.2399L56.7403 21.2929C56.4406 20.693 55.7928 20.3446 55.1256 20.4317L30.9441 23.5184L39.8103 38.2358C40.1778 38.8454 40.9126 39.1356 41.5991 38.9421L60.7335 33.4751C61.6907 33.1945 62.1548 32.1301 61.7197 31.2399V31.2399ZM5.14787 21.2929L0.168461 31.2399C-0.276301 32.1301 0.197467 33.1945 1.14501 33.4654L20.2795 38.9324C20.9659 39.126 21.7008 38.8357 22.0682 38.2261L30.9441 23.5184L6.75288 20.4317C6.08574 20.3543 5.4476 20.693 5.14787 21.2929V21.2929Z" fill="#6F99D8"/>
</svg>
